<?xml version="1.0" encoding="utf-8" standalone="no"?>
<!DOCTYPE svg PUBLIC "-//W3C//DTD SVG 1.1//EN"
  "http://www.w3.org/Graphics/SVG/1.1/DTD/svg11.dtd">
<svg xmlns:xlink="http://www.w3.org/1999/xlink" width="586.02pt" height="345.709656pt" viewBox="0 0 586.02 345.709656" xmlns="http://www.w3.org/2000/svg" version="1.1">
 <metadata>
  <rdf:RDF xmlns:dc="http://purl.org/dc/elements/1.1/" xmlns:cc="http://creativecommons.org/ns#" xmlns:rdf="http://www.w3.org/1999/02/22-rdf-syntax-ns#">
   <cc:Work>
    <dc:type rdf:resource="http://purl.org/dc/dcmitype/StillImage"/>
    <dc:date>2023-07-22T14:53:53.053158</dc:date>
    <dc:format>image/svg+xml</dc:format>
    <dc:creator>
     <cc:Agent>
      <dc:title>Matplotlib v3.7.2, https://matplotlib.org/</dc:title>
     </cc:Agent>
    </dc:creator>
   </cc:Work>
  </rdf:RDF>
 </metadata>
 <defs>
  <style type="text/css">*{stroke-linejoin: round; stroke-linecap: butt}</style>
 </defs>
 <g id="figure_1">
  <g id="patch_1">
   <path d="M 0 345.709656 
L 586.02 345.709656 
L 586.02 0 
L 0 0 
L 0 345.709656 
z
" style="fill: none"/>
  </g>
  <g id="axes_1">
   <g id="patch_2">
    <path d="M 83.91 141.697656 
L 72.66 152.947656 
L 29.91 152.947656 
L 29.91 130.447656 
L 72.66 130.447656 
L 83.91 141.697656 
z
" clip-path="url(#p94c7271f83)" style="fill: none; stroke: #000000; stroke-width: 0.75; stroke-linecap: round"/>
   </g>
   <g id="patch_3">
    <path d="M 83.91 177.697656 
L 72.66 188.947656 
L 29.91 188.947656 
L 29.91 166.447656 
L 72.66 166.447656 
L 83.91 177.697656 
z
" clip-path="url(#p94c7271f83)" style="fill: none; stroke: #000000; stroke-width: 0.75; stroke-linecap: round"/>
   </g>
   <g id="patch_4">
    <path d="M 414.21 258.697656 
L 401.61 249.697656 
L 414.21 240.697656 
L 414.21 258.697656 
z
" clip-path="url(#p94c7271f83)" style="fill: none; stroke: #000000; stroke-width: 0.75; stroke-linecap: round"/>
   </g>
   <g id="line2d_1">
    <path d="M 209.91 249.697656 
L 299.91 249.697656 
L 299.91 69.697656 
L 209.91 69.697656 
L 209.91 249.697656 
" clip-path="url(#p94c7271f83)" style="fill: none; stroke: #000000; stroke-width: 0.75; stroke-linecap: round"/>
   </g>
   <g id="line2d_2">
    <path d="M 209.91 213.697656 
L 191.91 213.697656 
" clip-path="url(#p94c7271f83)" style="fill: none; stroke: #000000; stroke-width: 0.75; stroke-linecap: round"/>
   </g>
   <g id="line2d_3">
    <path d="M 209.91 177.697656 
L 191.91 177.697656 
" clip-path="url(#p94c7271f83)" style="fill: none; stroke: #000000; stroke-width: 0.75; stroke-linecap: round"/>
   </g>
   <g id="line2d_4">
    <path d="M 209.91 141.697656 
L 191.91 141.697656 
" clip-path="url(#p94c7271f83)" style="fill: none; stroke: #000000; stroke-width: 0.75; stroke-linecap: round"/>
   </g>
   <g id="line2d_5">
    <path d="M 209.91 105.697656 
L 191.91 105.697656 
" clip-path="url(#p94c7271f83)" style="fill: none; stroke: #000000; stroke-width: 0.75; stroke-linecap: round"/>
   </g>
   <g id="line2d_6">
    <path d="M 299.91 213.697656 
L 317.91 213.697656 
" clip-path="url(#p94c7271f83)" style="fill: none; stroke: #000000; stroke-width: 0.75; stroke-linecap: round"/>
   </g>
   <g id="line2d_7">
    <path d="M 299.91 177.697656 
L 317.91 177.697656 
" clip-path="url(#p94c7271f83)" style="fill: none; stroke: #000000; stroke-width: 0.75; stroke-linecap: round"/>
   </g>
   <g id="line2d_8">
    <path d="M 299.91 141.697656 
L 317.91 141.697656 
" clip-path="url(#p94c7271f83)" style="fill: none; stroke: #000000; stroke-width: 0.75; stroke-linecap: round"/>
   </g>
   <g id="line2d_9">
    <path d="M 299.91 105.697656 
L 317.91 105.697656 
" clip-path="url(#p94c7271f83)" style="fill: none; stroke: #000000; stroke-width: 0.75; stroke-linecap: round"/>
   </g>
   <g id="line2d_10">
    <path d="M 191.91 141.697656 
L 155.91 141.697656 
L 155.91 150.697656 
L 119.91 150.697656 
L 119.91 132.697656 
L 155.91 132.697656 
L 155.91 141.697656 
M 119.91 141.697656 
L 83.91 141.697656 
" clip-path="url(#p94c7271f83)" style="fill: none; stroke: #000000; stroke-width: 0.75; stroke-linecap: round"/>
   </g>
   <g id="line2d_11">
    <path d="M 191.91 177.697656 
L 155.91 177.697656 
L 155.91 186.697656 
L 119.91 186.697656 
L 119.91 168.697656 
L 155.91 168.697656 
L 155.91 177.697656 
M 119.91 177.697656 
L 83.91 177.697656 
" clip-path="url(#p94c7271f83)" style="fill: none; stroke: #000000; stroke-width: 0.75; stroke-linecap: round"/>
   </g>
   <g id="line2d_12">
    <path d="M 191.91 105.697656 
L 182.91 105.697656 
L 173.91 105.697656 
" clip-path="url(#p94c7271f83)" style="fill: none; stroke: #000000; stroke-width: 0.75; stroke-linecap: round"/>
   </g>
   <g id="line2d_13">
    <path d="M 173.91 105.697656 
L 173.91 69.697656 
L 173.91 33.697656 
" clip-path="url(#p94c7271f83)" style="fill: none; stroke: #000000; stroke-width: 0.75; stroke-linecap: round"/>
   </g>
   <g id="line2d_14">
    <path d="M 173.91 33.697656 
L 173.91 19.297656 
" clip-path="url(#p94c7271f83)" style="fill: none; stroke: #000000; stroke-width: 0.75; stroke-linecap: round"/>
   </g>
   <g id="line2d_15">
    <path d="M 173.91 19.297656 
L 167.16 19.297656 
" clip-path="url(#p94c7271f83)" style="fill: none; stroke: #000000; stroke-width: 0.75; stroke-linecap: round"/>
   </g>
   <g id="line2d_16">
    <path d="M 173.91 19.297656 
L 180.66 19.297656 
" clip-path="url(#p94c7271f83)" style="fill: none; stroke: #000000; stroke-width: 0.75; stroke-linecap: round"/>
   </g>
   <g id="line2d_17">
    <path d="M 173.91 33.697656 
L 123.15 33.697656 
M 123.15 42.697656 
L 123.15 24.697656 
M 116.67 42.697656 
L 116.67 24.697656 
M 116.67 33.697656 
L 65.91 33.697656 
" clip-path="url(#p94c7271f83)" style="fill: none; stroke: #000000; stroke-width: 0.75; stroke-linecap: round"/>
   </g>
   <g id="line2d_18">
    <path d="M 65.91 33.697656 
L 65.91 42.697656 
L 65.91 51.697656 
" clip-path="url(#p94c7271f83)" style="fill: none; stroke: #000000; stroke-width: 0.75; stroke-linecap: round"/>
   </g>
   <g id="line2d_19">
    <path d="M 65.91 51.697656 
L 65.91 66.097656 
L 56.91 66.097656 
L 74.91 66.097656 
M 59.61 70.417656 
L 72.21 70.417656 
M 64.11 74.737656 
L 67.71 74.737656 
" clip-path="url(#p94c7271f83)" style="fill: none; stroke: #000000; stroke-width: 0.75; stroke-linecap: round"/>
   </g>
   <g id="line2d_20">
    <path d="M 317.91 213.697656 
L 335.91 213.697656 
L 353.91 213.697656 
" clip-path="url(#p94c7271f83)" style="fill: none; stroke: #000000; stroke-width: 0.75; stroke-linecap: round"/>
   </g>
   <g id="line2d_21">
    <path d="M 353.91 213.697656 
L 389.91 213.697656 
L 389.91 204.697656 
L 425.91 204.697656 
L 425.91 222.697656 
L 389.91 222.697656 
L 389.91 213.697656 
M 425.91 213.697656 
L 461.91 213.697656 
" clip-path="url(#p94c7271f83)" style="fill: none; stroke: #000000; stroke-width: 0.75; stroke-linecap: round"/>
   </g>
   <g id="line2d_22">
    <path d="M 353.91 213.697656 
L 353.91 231.697656 
L 353.91 249.697656 
" clip-path="url(#p94c7271f83)" style="fill: none; stroke: #000000; stroke-width: 0.75; stroke-linecap: round"/>
   </g>
   <g id="line2d_23">
    <path d="M 353.91 249.697656 
L 401.61 249.697656 
M 401.61 258.697656 
L 401.61 240.697656 
M 414.21 249.697656 
L 461.91 249.697656 
" clip-path="url(#p94c7271f83)" style="fill: none; stroke: #000000; stroke-width: 0.75; stroke-linecap: round"/>
   </g>
   <g id="line2d_24">
    <path d="M 405.21 244.297656 
L 405.21 240.697656 
L 401.61 240.697656 
" clip-path="url(#p94c7271f83)" style="fill: none; stroke: #000000; stroke-width: 0.75; stroke-linecap: round"/>
   </g>
   <g id="line2d_25">
    <path d="M 398.01 255.097656 
L 398.01 258.697656 
L 401.61 258.697656 
" clip-path="url(#p94c7271f83)" style="fill: none; stroke: #000000; stroke-width: 0.75; stroke-linecap: round"/>
   </g>
   <g id="line2d_26">
    <path d="M 461.91 249.697656 
L 461.91 231.697656 
L 461.91 213.697656 
" clip-path="url(#p94c7271f83)" style="fill: none; stroke: #000000; stroke-width: 0.75; stroke-linecap: round"/>
   </g>
   <g id="line2d_27">
    <path d="M 461.91 213.697656 
L 479.91 213.697656 
L 497.91 213.697656 
" clip-path="url(#p94c7271f83)" style="fill: none; stroke: #000000; stroke-width: 0.75; stroke-linecap: round"/>
   </g>
   <g id="line2d_28">
    <path d="M 547.11 267.697656 
L 547.11 240.697656 
L 547.11 225.697656 
L 523.11 225.697656 
L 523.11 201.697656 
L 547.11 201.697656 
L 547.11 186.697656 
L 547.11 159.697656 
" clip-path="url(#p94c7271f83)" style="fill: none; stroke: #000000; stroke-width: 0.75; stroke-linecap: round"/>
   </g>
   <g id="line2d_29">
    <path d="M 517.11 225.697656 
L 517.11 201.697656 
" clip-path="url(#p94c7271f83)" style="fill: none; stroke: #000000; stroke-width: 0.75; stroke-linecap: round"/>
   </g>
   <g id="line2d_30">
    <path d="M 497.91 213.697656 
L 517.11 213.697656 
" clip-path="url(#p94c7271f83)" style="fill: none; stroke: #000000; stroke-width: 0.75; stroke-linecap: round"/>
   </g>
   <g id="line2d_31">
    <path d="M 532.11 213.697656 
L 547.11 213.697656 
" clip-path="url(#p94c7271f83)" style="fill: none; stroke: #000000; stroke-width: 0.75; stroke-linecap: round"/>
   </g>
   <g id="patch_5">
    <path d="M 532.11 217.297656 
L 523.11 213.697656 
L 532.11 210.097656 
z
" clip-path="url(#p94c7271f83)"/>
   </g>
   <g id="line2d_32">
    <path d="M 547.11 159.697656 
L 547.11 141.697656 
L 547.11 123.697656 
" clip-path="url(#p94c7271f83)" style="fill: none; stroke: #000000; stroke-width: 0.75; stroke-linecap: round"/>
   </g>
   <g id="line2d_33">
    <path d="M 547.11 267.697656 
L 547.11 285.697656 
L 547.11 303.697656 
" clip-path="url(#p94c7271f83)" style="fill: none; stroke: #000000; stroke-width: 0.75; stroke-linecap: round"/>
   </g>
   <g id="line2d_34">
    <path d="M 547.11 303.697656 
L 547.11 318.097656 
L 538.11 318.097656 
L 556.11 318.097656 
M 540.81 322.417656 
L 553.41 322.417656 
M 545.31 326.737656 
L 548.91 326.737656 
" clip-path="url(#p94c7271f83)" style="fill: none; stroke: #000000; stroke-width: 0.75; stroke-linecap: round"/>
   </g>
   <g id="line2d_35">
    <path d="M 191.91 213.697656 
L 182.91 213.697656 
L 173.91 213.697656 
" clip-path="url(#p94c7271f83)" style="fill: none; stroke: #000000; stroke-width: 0.75; stroke-linecap: round"/>
   </g>
   <g id="line2d_36">
    <path d="M 173.91 213.697656 
L 173.91 228.097656 
L 164.91 228.097656 
L 182.91 228.097656 
M 167.61 232.417656 
L 180.21 232.417656 
M 172.11 236.737656 
L 175.71 236.737656 
" clip-path="url(#p94c7271f83)" style="fill: none; stroke: #000000; stroke-width: 0.75; stroke-linecap: round"/>
   </g>
   <g id="line2d_37">
    <path d="M 317.91 177.697656 
L 317.91 159.697656 
L 317.91 141.697656 
" clip-path="url(#p94c7271f83)" style="fill: none; stroke-dasharray: 2.775,1.2; stroke-dashoffset: 0; stroke: #000000; stroke-width: 0.75"/>
   </g>
   <g id="line2d_38">
    <path d="M 317.91 141.697656 
L 317.91 123.697656 
L 317.91 105.697656 
" clip-path="url(#p94c7271f83)" style="fill: none; stroke-dasharray: 2.775,1.2; stroke-dashoffset: 0; stroke: #000000; stroke-width: 0.75"/>
   </g>
   <g id="line2d_39">
    <path d="M 317.91 105.697656 
L 371.91 105.697656 
L 371.91 96.697656 
L 407.91 96.697656 
L 407.91 114.697656 
L 371.91 114.697656 
L 371.91 105.697656 
M 407.91 105.697656 
L 461.91 105.697656 
" clip-path="url(#p94c7271f83)" style="fill: none; stroke-dasharray: 2.775,1.2; stroke-dashoffset: 0; stroke: #000000; stroke-width: 0.75"/>
   </g>
   <g id="line2d_40">
    <path d="M 461.91 105.697656 
L 461.91 120.097656 
L 452.91 120.097656 
L 470.91 120.097656 
M 455.61 124.417656 
L 468.21 124.417656 
M 460.11 128.737656 
L 463.71 128.737656 
" clip-path="url(#p94c7271f83)" style="fill: none; stroke-dasharray: 2.775,1.2; stroke-dashoffset: 0; stroke: #000000; stroke-width: 0.75"/>
   </g>
   <g id="text_1">
    <!-- COM -->
    <g transform="translate(215.31 216.319062) scale(0.095 -0.095)">
     <defs>
      <path id="DejaVuSerif-43" d="M 4513 1234 
Q 4306 581 3820 245 
Q 3334 -91 2591 -91 
Q 2134 -91 1743 65 
Q 1353 222 1050 525 
Q 700 875 529 1320 
Q 359 1766 359 2328 
Q 359 3416 987 4083 
Q 1616 4750 2644 4750 
Q 3025 4750 3456 4650 
Q 3888 4550 4384 4347 
L 4384 3272 
L 4031 3272 
Q 3916 3859 3567 4137 
Q 3219 4416 2591 4416 
Q 1844 4416 1459 3886 
Q 1075 3356 1075 2328 
Q 1075 1303 1459 773 
Q 1844 244 2591 244 
Q 3113 244 3450 492 
Q 3788 741 3938 1234 
L 4513 1234 
z
" transform="scale(0.015625)"/>
      <path id="DejaVuSerif-4f" d="M 2625 244 
Q 3391 244 3781 770 
Q 4172 1297 4172 2328 
Q 4172 3363 3781 3889 
Q 3391 4416 2625 4416 
Q 1856 4416 1465 3889 
Q 1075 3363 1075 2328 
Q 1075 1297 1465 770 
Q 1856 244 2625 244 
z
M 2625 -91 
Q 2150 -91 1751 65 
Q 1353 222 1050 525 
Q 700 875 529 1319 
Q 359 1763 359 2328 
Q 359 2894 529 3339 
Q 700 3784 1050 4134 
Q 1356 4441 1750 4595 
Q 2144 4750 2625 4750 
Q 3641 4750 4266 4084 
Q 4891 3419 4891 2328 
Q 4891 1769 4719 1320 
Q 4547 872 4197 525 
Q 3891 219 3497 64 
Q 3103 -91 2625 -91 
z
" transform="scale(0.015625)"/>
      <path id="DejaVuSerif-4d" d="M 353 0 
L 353 331 
L 947 331 
L 947 4331 
L 319 4331 
L 319 4666 
L 1678 4666 
L 3316 1344 
L 4953 4666 
L 6228 4666 
L 6228 4331 
L 5606 4331 
L 5606 331 
L 6203 331 
L 6203 0 
L 4378 0 
L 4378 331 
L 4972 331 
L 4972 3938 
L 3372 684 
L 2931 684 
L 1331 3938 
L 1331 331 
L 1925 331 
L 1925 0 
L 353 0 
z
" transform="scale(0.015625)"/>
     </defs>
     <use xlink:href="#DejaVuSerif-43"/>
     <use xlink:href="#DejaVuSerif-4f" x="76.513672"/>
     <use xlink:href="#DejaVuSerif-4d" x="158.496094"/>
    </g>
   </g>
   <g id="text_2">
    <!-- 4 -->
    <g transform="translate(202.065625 209.921953) scale(0.095 -0.095)">
     <defs>
      <path id="DejaVuSerif-34" d="M 2234 1581 
L 2234 4063 
L 641 1581 
L 2234 1581 
z
M 3609 0 
L 1484 0 
L 1484 331 
L 2234 331 
L 2234 1247 
L 197 1247 
L 197 1588 
L 2241 4750 
L 2859 4750 
L 2859 1581 
L 3750 1581 
L 3750 1247 
L 2859 1247 
L 2859 331 
L 3609 331 
L 3609 0 
z
" transform="scale(0.015625)"/>
     </defs>
     <use xlink:href="#DejaVuSerif-34"/>
    </g>
   </g>
   <g id="text_3">
    <!-- SD -->
    <g transform="translate(215.31 180.319062) scale(0.095 -0.095)">
     <defs>
      <path id="DejaVuSerif-53" d="M 594 225 
L 594 1288 
L 953 1284 
Q 969 753 1261 498 
Q 1553 244 2150 244 
Q 2706 244 2998 464 
Q 3291 684 3291 1106 
Q 3291 1444 3114 1625 
Q 2938 1806 2369 1978 
L 1753 2163 
Q 1084 2366 811 2669 
Q 538 2972 538 3500 
Q 538 4094 959 4422 
Q 1381 4750 2144 4750 
Q 2469 4750 2856 4679 
Q 3244 4609 3681 4475 
L 3681 3481 
L 3328 3481 
Q 3275 3975 2998 4195 
Q 2722 4416 2156 4416 
Q 1663 4416 1405 4214 
Q 1147 4013 1147 3628 
Q 1147 3294 1340 3103 
Q 1534 2913 2163 2725 
L 2741 2553 
Q 3375 2363 3645 2067 
Q 3916 1772 3916 1275 
Q 3916 597 3481 253 
Q 3047 -91 2188 -91 
Q 1803 -91 1404 -12 
Q 1006 66 594 225 
z
" transform="scale(0.015625)"/>
      <path id="DejaVuSerif-44" d="M 1581 331 
L 2163 331 
Q 3072 331 3558 850 
Q 4044 1369 4044 2338 
Q 4044 3306 3559 3818 
Q 3075 4331 2163 4331 
L 1581 4331 
L 1581 331 
z
M 353 0 
L 353 331 
L 947 331 
L 947 4331 
L 353 4331 
L 353 4666 
L 2209 4666 
Q 3416 4666 4089 4050 
Q 4763 3434 4763 2338 
Q 4763 1238 4088 619 
Q 3413 0 2209 0 
L 353 0 
z
" transform="scale(0.015625)"/>
     </defs>
     <use xlink:href="#DejaVuSerif-53"/>
     <use xlink:href="#DejaVuSerif-44" x="68.505859"/>
    </g>
   </g>
   <g id="text_4">
    <!-- 3 -->
    <g transform="translate(202.065625 173.921953) scale(0.095 -0.095)">
     <defs>
      <path id="DejaVuSerif-33" d="M 622 4469 
Q 988 4606 1323 4678 
Q 1659 4750 1953 4750 
Q 2638 4750 3022 4454 
Q 3406 4159 3406 3634 
Q 3406 3213 3140 2930 
Q 2875 2647 2388 2547 
Q 2963 2466 3280 2130 
Q 3597 1794 3597 1259 
Q 3597 606 3158 257 
Q 2719 -91 1894 -91 
Q 1528 -91 1179 -12 
Q 831 66 488 225 
L 488 1131 
L 838 1131 
Q 869 681 1141 450 
Q 1413 219 1906 219 
Q 2384 219 2661 495 
Q 2938 772 2938 1253 
Q 2938 1803 2653 2086 
Q 2369 2369 1819 2369 
L 1522 2369 
L 1522 2688 
L 1678 2688 
Q 2225 2688 2498 2914 
Q 2772 3141 2772 3597 
Q 2772 4006 2547 4223 
Q 2322 4441 1900 4441 
Q 1478 4441 1245 4241 
Q 1013 4041 972 3647 
L 622 3647 
L 622 4469 
z
" transform="scale(0.015625)"/>
     </defs>
     <use xlink:href="#DejaVuSerif-33"/>
    </g>
   </g>
   <g id="text_5">
    <!-- IN -->
    <g transform="translate(215.31 144.319062) scale(0.095 -0.095)">
     <defs>
      <path id="DejaVuSerif-49" d="M 1581 331 
L 2175 331 
L 2175 0 
L 353 0 
L 353 331 
L 947 331 
L 947 4331 
L 353 4331 
L 353 4666 
L 2175 4666 
L 2175 4331 
L 1581 4331 
L 1581 331 
z
" transform="scale(0.015625)"/>
      <path id="DejaVuSerif-4e" d="M 313 0 
L 313 331 
L 941 331 
L 941 4331 
L 313 4331 
L 313 4666 
L 1509 4666 
L 4306 984 
L 4306 4331 
L 3681 4331 
L 3681 4666 
L 5319 4666 
L 5319 4331 
L 4691 4331 
L 4691 -91 
L 4313 -91 
L 1325 3841 
L 1325 331 
L 1953 331 
L 1953 0 
L 313 0 
z
" transform="scale(0.015625)"/>
     </defs>
     <use xlink:href="#DejaVuSerif-49"/>
     <use xlink:href="#DejaVuSerif-4e" x="39.501953"/>
    </g>
   </g>
   <g id="text_6">
    <!-- 2 -->
    <g transform="translate(202.065625 137.921953) scale(0.095 -0.095)">
     <defs>
      <path id="DejaVuSerif-32" d="M 819 3553 
L 469 3553 
L 469 4384 
Q 803 4563 1142 4656 
Q 1481 4750 1806 4750 
Q 2534 4750 2956 4397 
Q 3378 4044 3378 3438 
Q 3378 2753 2422 1800 
Q 2347 1728 2309 1691 
L 1131 513 
L 3078 513 
L 3078 1088 
L 3444 1088 
L 3444 0 
L 434 0 
L 434 341 
L 1850 1753 
Q 2319 2222 2519 2614 
Q 2719 3006 2719 3438 
Q 2719 3909 2473 4175 
Q 2228 4441 1797 4441 
Q 1350 4441 1106 4219 
Q 863 3997 819 3553 
z
" transform="scale(0.015625)"/>
     </defs>
     <use xlink:href="#DejaVuSerif-32"/>
    </g>
   </g>
   <g id="text_7">
    <!-- Vcc -->
    <g transform="translate(215.31 108.319062) scale(0.095 -0.095)">
     <defs>
      <path id="DejaVuSerif-56" d="M 1119 4331 
L 2497 750 
L 3872 4331 
L 3347 4331 
L 3347 4666 
L 4716 4666 
L 4716 4331 
L 4263 4331 
L 2597 0 
L 2059 0 
L 403 4331 
L -63 4331 
L -63 4666 
L 1638 4666 
L 1638 4331 
L 1119 4331 
z
" transform="scale(0.015625)"/>
      <path id="DejaVuSerif-63" d="M 3291 997 
Q 3169 466 2822 187 
Q 2475 -91 1925 -91 
Q 1200 -91 759 389 
Q 319 869 319 1663 
Q 319 2459 759 2936 
Q 1200 3413 1925 3413 
Q 2241 3413 2553 3339 
Q 2866 3266 3181 3116 
L 3181 2266 
L 2847 2266 
Q 2781 2703 2561 2903 
Q 2341 3103 1931 3103 
Q 1466 3103 1228 2742 
Q 991 2381 991 1663 
Q 991 944 1227 581 
Q 1463 219 1931 219 
Q 2303 219 2525 412 
Q 2747 606 2828 997 
L 3291 997 
z
" transform="scale(0.015625)"/>
     </defs>
     <use xlink:href="#DejaVuSerif-56"/>
     <use xlink:href="#DejaVuSerif-63" x="72.216797"/>
     <use xlink:href="#DejaVuSerif-63" x="128.222656"/>
    </g>
   </g>
   <g id="text_8">
    <!-- 1 -->
    <g transform="translate(202.065625 101.921953) scale(0.095 -0.095)">
     <defs>
      <path id="DejaVuSerif-31" d="M 909 0 
L 909 331 
L 1722 331 
L 1722 4213 
L 781 3603 
L 781 4013 
L 1919 4750 
L 2350 4750 
L 2350 331 
L 3163 331 
L 3163 0 
L 909 0 
z
" transform="scale(0.015625)"/>
     </defs>
     <use xlink:href="#DejaVuSerif-31"/>
    </g>
   </g>
   <g id="text_9">
    <!-- LO -->
    <g transform="translate(280.412891 216.319062) scale(0.095 -0.095)">
     <defs>
      <path id="DejaVuSerif-4c" d="M 353 0 
L 353 331 
L 947 331 
L 947 4331 
L 353 4331 
L 353 4666 
L 2175 4666 
L 2175 4331 
L 1581 4331 
L 1581 384 
L 3713 384 
L 3713 1166 
L 4097 1166 
L 4097 0 
L 353 0 
z
" transform="scale(0.015625)"/>
     </defs>
     <use xlink:href="#DejaVuSerif-4c"/>
     <use xlink:href="#DejaVuSerif-4f" x="66.40625"/>
    </g>
   </g>
   <g id="text_10">
    <!-- 5 -->
    <g transform="translate(301.71 209.921953) scale(0.095 -0.095)">
     <defs>
      <path id="DejaVuSerif-35" d="M 3219 4666 
L 3219 4153 
L 1081 4153 
L 1081 2816 
Q 1244 2928 1461 2984 
Q 1678 3041 1947 3041 
Q 2703 3041 3140 2622 
Q 3578 2203 3578 1478 
Q 3578 738 3136 323 
Q 2694 -91 1894 -91 
Q 1572 -91 1234 -12 
Q 897 66 544 225 
L 544 1131 
L 897 1131 
Q 925 688 1179 453 
Q 1434 219 1894 219 
Q 2388 219 2653 544 
Q 2919 869 2919 1478 
Q 2919 2084 2655 2407 
Q 2391 2731 1894 2731 
Q 1613 2731 1398 2631 
Q 1184 2531 1019 2322 
L 750 2322 
L 750 4666 
L 3219 4666 
z
" transform="scale(0.015625)"/>
     </defs>
     <use xlink:href="#DejaVuSerif-35"/>
    </g>
   </g>
   <g id="text_11">
    <!-- Vs -->
    <g transform="translate(282.774531 180.319062) scale(0.095 -0.095)">
     <defs>
      <path id="DejaVuSerif-73" d="M 359 184 
L 359 959 
L 691 959 
Q 703 588 923 403 
Q 1144 219 1575 219 
Q 1963 219 2166 364 
Q 2369 509 2369 788 
Q 2369 1006 2220 1140 
Q 2072 1275 1594 1428 
L 1178 1569 
Q 750 1706 558 1912 
Q 366 2119 366 2438 
Q 366 2894 700 3153 
Q 1034 3413 1625 3413 
Q 1888 3413 2178 3344 
Q 2469 3275 2778 3144 
L 2778 2419 
L 2447 2419 
Q 2434 2741 2221 2922 
Q 2009 3103 1644 3103 
Q 1281 3103 1095 2975 
Q 909 2847 909 2591 
Q 909 2381 1050 2254 
Q 1191 2128 1613 1997 
L 2069 1856 
Q 2541 1709 2748 1489 
Q 2956 1269 2956 922 
Q 2956 450 2595 179 
Q 2234 -91 1600 -91 
Q 1278 -91 972 -22 
Q 666 47 359 184 
z
" transform="scale(0.015625)"/>
     </defs>
     <use xlink:href="#DejaVuSerif-56"/>
     <use xlink:href="#DejaVuSerif-73" x="72.216797"/>
    </g>
   </g>
   <g id="text_12">
    <!-- 6 -->
    <g transform="translate(301.71 173.921953) scale(0.095 -0.095)">
     <defs>
      <path id="DejaVuSerif-36" d="M 2094 219 
Q 2534 219 2771 542 
Q 3009 866 3009 1472 
Q 3009 2078 2771 2401 
Q 2534 2725 2094 2725 
Q 1647 2725 1412 2412 
Q 1178 2100 1178 1509 
Q 1178 888 1415 553 
Q 1653 219 2094 219 
z
M 1075 2569 
Q 1288 2803 1556 2918 
Q 1825 3034 2163 3034 
Q 2859 3034 3264 2615 
Q 3669 2197 3669 1472 
Q 3669 763 3233 336 
Q 2797 -91 2069 -91 
Q 1278 -91 853 498 
Q 428 1088 428 2181 
Q 428 3406 931 4078 
Q 1434 4750 2350 4750 
Q 2597 4750 2869 4703 
Q 3141 4656 3425 4563 
L 3425 3794 
L 3072 3794 
Q 3034 4109 2831 4275 
Q 2628 4441 2284 4441 
Q 1678 4441 1381 3981 
Q 1084 3522 1075 2569 
z
" transform="scale(0.015625)"/>
     </defs>
     <use xlink:href="#DejaVuSerif-36"/>
    </g>
   </g>
   <g id="text_13">
    <!-- HO -->
    <g transform="translate(278.437187 144.319062) scale(0.095 -0.095)">
     <defs>
      <path id="DejaVuSerif-48" d="M 353 0 
L 353 331 
L 947 331 
L 947 4331 
L 353 4331 
L 353 4666 
L 2175 4666 
L 2175 4331 
L 1581 4331 
L 1581 2719 
L 4000 2719 
L 4000 4331 
L 3406 4331 
L 3406 4666 
L 5228 4666 
L 5228 4331 
L 4634 4331 
L 4634 331 
L 5228 331 
L 5228 0 
L 3406 0 
L 3406 331 
L 4000 331 
L 4000 2338 
L 1581 2338 
L 1581 331 
L 2175 331 
L 2175 0 
L 353 0 
z
" transform="scale(0.015625)"/>
     </defs>
     <use xlink:href="#DejaVuSerif-48"/>
     <use xlink:href="#DejaVuSerif-4f" x="87.207031"/>
    </g>
   </g>
   <g id="text_14">
    <!-- 7 -->
    <g transform="translate(301.71 137.921953) scale(0.095 -0.095)">
     <defs>
      <path id="DejaVuSerif-37" d="M 3609 4347 
L 1784 0 
L 1319 0 
L 3059 4153 
L 903 4153 
L 903 3578 
L 538 3578 
L 538 4666 
L 3609 4666 
L 3609 4347 
z
" transform="scale(0.015625)"/>
     </defs>
     <use xlink:href="#DejaVuSerif-37"/>
    </g>
   </g>
   <g id="text_15">
    <!-- VB -->
    <g transform="translate(280.668203 108.319062) scale(0.095 -0.095)">
     <defs>
      <path id="DejaVuSerif-42" d="M 1581 331 
L 2516 331 
Q 3078 331 3337 575 
Q 3597 819 3597 1350 
Q 3597 1878 3339 2120 
Q 3081 2363 2516 2363 
L 1581 2363 
L 1581 331 
z
M 1581 2694 
L 2375 2694 
Q 2888 2694 3123 2891 
Q 3359 3088 3359 3513 
Q 3359 3941 3123 4136 
Q 2888 4331 2375 4331 
L 1581 4331 
L 1581 2694 
z
M 353 0 
L 353 331 
L 947 331 
L 947 4331 
L 353 4331 
L 353 4666 
L 2656 4666 
Q 3363 4666 3720 4377 
Q 4078 4088 4078 3513 
Q 4078 3097 3829 2850 
Q 3581 2603 3103 2547 
Q 3697 2472 4005 2167 
Q 4313 1863 4313 1350 
Q 4313 656 3875 328 
Q 3438 0 2509 0 
L 353 0 
z
" transform="scale(0.015625)"/>
     </defs>
     <use xlink:href="#DejaVuSerif-56"/>
     <use xlink:href="#DejaVuSerif-42" x="72.216797"/>
    </g>
   </g>
   <g id="text_16">
    <!-- 8 -->
    <g transform="translate(301.71 101.921953) scale(0.095 -0.095)">
     <defs>
      <path id="DejaVuSerif-38" d="M 2981 1275 
Q 2981 1775 2732 2051 
Q 2484 2328 2034 2328 
Q 1584 2328 1336 2051 
Q 1088 1775 1088 1275 
Q 1088 772 1336 495 
Q 1584 219 2034 219 
Q 2484 219 2732 495 
Q 2981 772 2981 1275 
z
M 2853 3541 
Q 2853 3966 2637 4203 
Q 2422 4441 2034 4441 
Q 1650 4441 1433 4203 
Q 1216 3966 1216 3541 
Q 1216 3113 1433 2875 
Q 1650 2638 2034 2638 
Q 2422 2638 2637 2875 
Q 2853 3113 2853 3541 
z
M 2516 2484 
Q 3047 2413 3344 2092 
Q 3641 1772 3641 1275 
Q 3641 619 3225 264 
Q 2809 -91 2034 -91 
Q 1263 -91 845 264 
Q 428 619 428 1275 
Q 428 1772 725 2092 
Q 1022 2413 1556 2484 
Q 1084 2569 832 2842 
Q 581 3116 581 3541 
Q 581 4103 968 4426 
Q 1356 4750 2034 4750 
Q 2713 4750 3100 4426 
Q 3488 4103 3488 3541 
Q 3488 3116 3236 2842 
Q 2984 2569 2516 2484 
z
" transform="scale(0.015625)"/>
     </defs>
     <use xlink:href="#DejaVuSerif-38"/>
    </g>
   </g>
   <g id="text_17">
    <!-- IR2104S -->
    <g transform="translate(231.925664 261.276016) scale(0.105 -0.105)">
     <defs>
      <path id="DejaVuSerif-52" d="M 3066 2316 
Q 3284 2256 3442 2114 
Q 3600 1972 3725 1716 
L 4403 331 
L 4972 331 
L 4972 0 
L 3872 0 
L 3144 1484 
Q 2934 1916 2759 2042 
Q 2584 2169 2278 2169 
L 1581 2169 
L 1581 331 
L 2241 331 
L 2241 0 
L 353 0 
L 353 331 
L 947 331 
L 947 4331 
L 353 4331 
L 353 4666 
L 2719 4666 
Q 3400 4666 3770 4341 
Q 4141 4016 4141 3419 
Q 4141 2938 3870 2661 
Q 3600 2384 3066 2316 
z
M 1581 2503 
L 2503 2503 
Q 2975 2503 3200 2726 
Q 3425 2950 3425 3419 
Q 3425 3888 3200 4109 
Q 2975 4331 2503 4331 
L 1581 4331 
L 1581 2503 
z
" transform="scale(0.015625)"/>
      <path id="DejaVuSerif-30" d="M 2034 219 
Q 2513 219 2750 744 
Q 2988 1269 2988 2328 
Q 2988 3391 2750 3916 
Q 2513 4441 2034 4441 
Q 1556 4441 1318 3916 
Q 1081 3391 1081 2328 
Q 1081 1269 1318 744 
Q 1556 219 2034 219 
z
M 2034 -91 
Q 1275 -91 848 546 
Q 422 1184 422 2328 
Q 422 3475 848 4112 
Q 1275 4750 2034 4750 
Q 2797 4750 3222 4112 
Q 3647 3475 3647 2328 
Q 3647 1184 3222 546 
Q 2797 -91 2034 -91 
z
" transform="scale(0.015625)"/>
     </defs>
     <use xlink:href="#DejaVuSerif-49"/>
     <use xlink:href="#DejaVuSerif-52" x="39.501953"/>
     <use xlink:href="#DejaVuSerif-32" x="114.794922"/>
     <use xlink:href="#DejaVuSerif-31" x="178.417969"/>
     <use xlink:href="#DejaVuSerif-30" x="242.041016"/>
     <use xlink:href="#DejaVuSerif-34" x="305.664062"/>
     <use xlink:href="#DejaVuSerif-53" x="369.287109"/>
    </g>
   </g>
   <g id="text_18">
    <!-- $R_{1}$ -->
    <g transform="translate(130.5975 126.498047) scale(0.125 -0.125)">
     <defs>
      <path id="DejaVuSans-Oblique-52" d="M 1613 4147 
L 1294 2491 
L 2106 2491 
Q 2584 2491 2879 2755 
Q 3175 3019 3175 3444 
Q 3175 3784 2976 3965 
Q 2778 4147 2406 4147 
L 1613 4147 
z
M 2772 2241 
Q 2972 2194 3105 2009 
Q 3238 1825 3413 1275 
L 3809 0 
L 3144 0 
L 2778 1197 
Q 2638 1659 2453 1815 
Q 2269 1972 1888 1972 
L 1191 1972 
L 806 0 
L 172 0 
L 1081 4666 
L 2503 4666 
Q 3150 4666 3495 4373 
Q 3841 4081 3841 3531 
Q 3841 3044 3547 2687 
Q 3253 2331 2772 2241 
z
" transform="scale(0.015625)"/>
      <path id="DejaVuSans-31" d="M 794 531 
L 1825 531 
L 1825 4091 
L 703 3866 
L 703 4441 
L 1819 4666 
L 2450 4666 
L 2450 531 
L 3481 531 
L 3481 0 
L 794 0 
L 794 531 
z
" transform="scale(0.015625)"/>
     </defs>
     <use xlink:href="#DejaVuSans-Oblique-52" transform="translate(0 0.09375)"/>
     <use xlink:href="#DejaVuSans-31" transform="translate(69.482422 -16.3125) scale(0.7)"/>
    </g>
   </g>
   <g id="text_19">
    <!-- PWM -->
    <g transform="translate(42.606211 144.595) scale(0.105 -0.105)">
     <defs>
      <path id="DejaVuSerif-50" d="M 1581 2375 
L 2406 2375 
Q 2872 2375 3115 2626 
Q 3359 2878 3359 3353 
Q 3359 3831 3115 4081 
Q 2872 4331 2406 4331 
L 1581 4331 
L 1581 2375 
z
M 353 0 
L 353 331 
L 947 331 
L 947 4331 
L 353 4331 
L 353 4666 
L 2559 4666 
Q 3259 4666 3668 4311 
Q 4078 3956 4078 3353 
Q 4078 2753 3668 2397 
Q 3259 2041 2559 2041 
L 1581 2041 
L 1581 331 
L 2303 331 
L 2303 0 
L 353 0 
z
" transform="scale(0.015625)"/>
      <path id="DejaVuSerif-57" d="M 4878 0 
L 4366 0 
L 3297 3794 
L 2228 0 
L 1716 0 
L 494 4331 
L 31 4331 
L 31 4666 
L 1734 4666 
L 1734 4331 
L 1153 4331 
L 2125 884 
L 3188 4666 
L 3694 4666 
L 4775 844 
L 5753 4331 
L 5216 4331 
L 5216 4666 
L 6559 4666 
L 6559 4331 
L 6100 4331 
L 4878 0 
z
" transform="scale(0.015625)"/>
     </defs>
     <use xlink:href="#DejaVuSerif-50"/>
     <use xlink:href="#DejaVuSerif-57" x="67.285156"/>
     <use xlink:href="#DejaVuSerif-4d" x="170.068359"/>
    </g>
   </g>
   <g id="text_20">
    <!-- $R_{2}$ -->
    <g transform="translate(130.5975 199.795703) scale(0.125 -0.125)">
     <defs>
      <path id="DejaVuSans-32" d="M 1228 531 
L 3431 531 
L 3431 0 
L 469 0 
L 469 531 
Q 828 903 1448 1529 
Q 2069 2156 2228 2338 
Q 2531 2678 2651 2914 
Q 2772 3150 2772 3378 
Q 2772 3750 2511 3984 
Q 2250 4219 1831 4219 
Q 1534 4219 1204 4116 
Q 875 4013 500 3803 
L 500 4441 
Q 881 4594 1212 4672 
Q 1544 4750 1819 4750 
Q 2544 4750 2975 4387 
Q 3406 4025 3406 3419 
Q 3406 3131 3298 2873 
Q 3191 2616 2906 2266 
Q 2828 2175 2409 1742 
Q 1991 1309 1228 531 
z
" transform="scale(0.015625)"/>
     </defs>
     <use xlink:href="#DejaVuSans-Oblique-52" transform="translate(0 0.09375)"/>
     <use xlink:href="#DejaVuSans-32" transform="translate(69.482422 -16.3125) scale(0.7)"/>
    </g>
   </g>
   <g id="text_21">
    <!-- SD -->
    <g transform="translate(49.104727 180.595) scale(0.105 -0.105)">
     <use xlink:href="#DejaVuSerif-53"/>
     <use xlink:href="#DejaVuSerif-44" x="68.505859"/>
    </g>
   </g>
   <g id="patch_6">
    <path d="M 173.91 36.397656 
C 174.626048 36.397656 175.312866 36.113167 175.819188 35.606845 
C 176.325511 35.100522 176.61 34.413705 176.61 33.697656 
C 176.61 32.981608 176.325511 32.294791 175.819188 31.788468 
C 175.312866 31.282145 174.626048 30.997656 173.91 30.997656 
C 173.193952 30.997656 172.507134 31.282145 172.000812 31.788468 
C 171.494489 32.294791 171.21 32.981608 171.21 33.697656 
C 171.21 34.413705 171.494489 35.100522 172.000812 35.606845 
C 172.507134 36.113167 173.193952 36.397656 173.91 36.397656 
z
" clip-path="url(#p94c7271f83)" style="stroke: #000000; stroke-width: 0.75; stroke-linejoin: miter"/>
   </g>
   <g id="text_22">
    <!-- 12V -->
    <g transform="translate(161.443203 13.098047) scale(0.125 -0.125)">
     <use xlink:href="#DejaVuSerif-31"/>
     <use xlink:href="#DejaVuSerif-32" x="63.623047"/>
     <use xlink:href="#DejaVuSerif-56" x="127.246094"/>
    </g>
   </g>
   <g id="text_23">
    <!-- $C_{bypass}$ -->
    <g transform="translate(99.9725 17.222656) scale(0.125 -0.125)">
     <defs>
      <path id="DejaVuSans-Oblique-43" d="M 4447 4306 
L 4319 3641 
Q 4019 3944 3683 4091 
Q 3347 4238 2956 4238 
Q 2422 4238 2017 3981 
Q 1613 3725 1319 3200 
Q 1131 2863 1032 2486 
Q 934 2109 934 1728 
Q 934 1091 1264 756 
Q 1594 422 2222 422 
Q 2656 422 3056 561 
Q 3456 700 3834 978 
L 3688 231 
Q 3316 72 2936 -9 
Q 2556 -91 2175 -91 
Q 1278 -91 773 396 
Q 269 884 269 1753 
Q 269 2309 461 2846 
Q 653 3384 1013 3828 
Q 1394 4300 1883 4525 
Q 2372 4750 3022 4750 
Q 3422 4750 3780 4639 
Q 4138 4528 4447 4306 
z
" transform="scale(0.015625)"/>
      <path id="DejaVuSans-Oblique-62" d="M 3169 2138 
Q 3169 2591 2961 2847 
Q 2753 3103 2388 3103 
Q 2122 3103 1889 2973 
Q 1656 2844 1484 2597 
Q 1303 2338 1198 1995 
Q 1094 1653 1094 1313 
Q 1094 881 1298 636 
Q 1503 391 1863 391 
Q 2134 391 2365 517 
Q 2597 644 2772 891 
Q 2950 1147 3059 1487 
Q 3169 1828 3169 2138 
z
M 1381 2969 
Q 1594 3256 1914 3420 
Q 2234 3584 2584 3584 
Q 3122 3584 3439 3221 
Q 3756 2859 3756 2241 
Q 3756 1734 3570 1259 
Q 3384 784 3041 416 
Q 2816 172 2522 40 
Q 2228 -91 1906 -91 
Q 1566 -91 1316 65 
Q 1066 222 909 531 
L 806 0 
L 231 0 
L 1178 4863 
L 1753 4863 
L 1381 2969 
z
" transform="scale(0.015625)"/>
      <path id="DejaVuSans-Oblique-79" d="M 1588 -325 
Q 1188 -997 936 -1164 
Q 684 -1331 294 -1331 
L -159 -1331 
L -63 -850 
L 269 -850 
Q 509 -850 678 -719 
Q 847 -588 1056 -206 
L 1234 128 
L 459 3500 
L 1069 3500 
L 1650 819 
L 3256 3500 
L 3859 3500 
L 1588 -325 
z
" transform="scale(0.015625)"/>
      <path id="DejaVuSans-Oblique-70" d="M 3175 2156 
Q 3175 2616 2975 2859 
Q 2775 3103 2400 3103 
Q 2144 3103 1911 2972 
Q 1678 2841 1497 2591 
Q 1319 2344 1212 1994 
Q 1106 1644 1106 1300 
Q 1106 863 1306 627 
Q 1506 391 1875 391 
Q 2147 391 2380 519 
Q 2613 647 2778 891 
Q 2956 1147 3065 1494 
Q 3175 1841 3175 2156 
z
M 1394 2969 
Q 1625 3272 1939 3428 
Q 2253 3584 2638 3584 
Q 3175 3584 3472 3232 
Q 3769 2881 3769 2247 
Q 3769 1728 3584 1258 
Q 3400 788 3053 416 
Q 2822 169 2531 39 
Q 2241 -91 1919 -91 
Q 1547 -91 1294 64 
Q 1041 219 916 525 
L 556 -1331 
L -19 -1331 
L 922 3500 
L 1497 3500 
L 1394 2969 
z
" transform="scale(0.015625)"/>
      <path id="DejaVuSans-Oblique-61" d="M 3438 1997 
L 3047 0 
L 2472 0 
L 2578 531 
Q 2325 219 2001 64 
Q 1678 -91 1281 -91 
Q 834 -91 548 182 
Q 263 456 263 884 
Q 263 1497 752 1853 
Q 1241 2209 2100 2209 
L 2900 2209 
L 2931 2363 
Q 2938 2388 2941 2417 
Q 2944 2447 2944 2509 
Q 2944 2788 2717 2942 
Q 2491 3097 2081 3097 
Q 1800 3097 1504 3025 
Q 1209 2953 897 2809 
L 997 3341 
Q 1322 3463 1633 3523 
Q 1944 3584 2234 3584 
Q 2853 3584 3176 3315 
Q 3500 3047 3500 2534 
Q 3500 2431 3484 2292 
Q 3469 2153 3438 1997 
z
M 2816 1759 
L 2241 1759 
Q 1534 1759 1195 1570 
Q 856 1381 856 984 
Q 856 709 1029 553 
Q 1203 397 1509 397 
Q 1978 397 2328 733 
Q 2678 1069 2791 1631 
L 2816 1759 
z
" transform="scale(0.015625)"/>
      <path id="DejaVuSans-Oblique-73" d="M 3200 3397 
L 3091 2853 
Q 2863 2978 2609 3040 
Q 2356 3103 2088 3103 
Q 1634 3103 1373 2948 
Q 1113 2794 1113 2528 
Q 1113 2219 1719 2053 
Q 1766 2041 1788 2034 
L 1972 1978 
Q 2547 1819 2739 1644 
Q 2931 1469 2931 1166 
Q 2931 609 2489 259 
Q 2047 -91 1331 -91 
Q 1053 -91 747 -37 
Q 441 16 72 128 
L 184 722 
Q 500 559 806 475 
Q 1113 391 1394 391 
Q 1816 391 2080 572 
Q 2344 753 2344 1031 
Q 2344 1331 1650 1516 
L 1591 1531 
L 1394 1581 
Q 956 1697 753 1886 
Q 550 2075 550 2369 
Q 550 2928 970 3256 
Q 1391 3584 2113 3584 
Q 2397 3584 2667 3537 
Q 2938 3491 3200 3397 
z
" transform="scale(0.015625)"/>
     </defs>
     <use xlink:href="#DejaVuSans-Oblique-43" transform="translate(0 0.78125)"/>
     <use xlink:href="#DejaVuSans-Oblique-62" transform="translate(69.824219 -15.625) scale(0.7)"/>
     <use xlink:href="#DejaVuSans-Oblique-79" transform="translate(114.257812 -15.625) scale(0.7)"/>
     <use xlink:href="#DejaVuSans-Oblique-70" transform="translate(155.683594 -15.625) scale(0.7)"/>
     <use xlink:href="#DejaVuSans-Oblique-61" transform="translate(200.117188 -15.625) scale(0.7)"/>
     <use xlink:href="#DejaVuSans-Oblique-73" transform="translate(243.012695 -15.625) scale(0.7)"/>
     <use xlink:href="#DejaVuSans-Oblique-73" transform="translate(279.482422 -15.625) scale(0.7)"/>
    </g>
   </g>
   <g id="patch_7">
    <path d="M 353.91 216.397656 
C 354.626048 216.397656 355.312866 216.113167 355.819188 215.606845 
C 356.325511 215.100522 356.61 214.413705 356.61 213.697656 
C 356.61 212.981608 356.325511 212.294791 355.819188 211.788468 
C 355.312866 211.282145 354.626048 210.997656 353.91 210.997656 
C 353.193952 210.997656 352.507134 211.282145 352.000812 211.788468 
C 351.494489 212.294791 351.21 212.981608 351.21 213.697656 
C 351.21 214.413705 351.494489 215.100522 352.000812 215.606845 
C 352.507134 216.113167 353.193952 216.397656 353.91 216.397656 
z
" clip-path="url(#p94c7271f83)" style="stroke: #000000; stroke-width: 0.75; stroke-linejoin: miter"/>
   </g>
   <g id="text_24">
    <!-- $R_{gate}$ -->
    <g transform="translate(393.4725 197.222656) scale(0.125 -0.125)">
     <defs>
      <path id="DejaVuSans-Oblique-67" d="M 3816 3500 
L 3219 434 
Q 3047 -456 2561 -893 
Q 2075 -1331 1253 -1331 
Q 950 -1331 690 -1286 
Q 431 -1241 206 -1147 
L 313 -588 
Q 525 -725 762 -790 
Q 1000 -856 1269 -856 
Q 1816 -856 2167 -557 
Q 2519 -259 2631 300 
L 2681 563 
Q 2441 288 2122 144 
Q 1803 0 1434 0 
Q 903 0 598 351 
Q 294 703 294 1319 
Q 294 1803 478 2267 
Q 663 2731 997 3091 
Q 1219 3328 1514 3456 
Q 1809 3584 2131 3584 
Q 2484 3584 2746 3420 
Q 3009 3256 3138 2956 
L 3238 3500 
L 3816 3500 
z
M 2950 2216 
Q 2950 2641 2750 2872 
Q 2550 3103 2181 3103 
Q 1953 3103 1747 3012 
Q 1541 2922 1394 2759 
Q 1156 2491 1023 2127 
Q 891 1763 891 1375 
Q 891 944 1092 712 
Q 1294 481 1672 481 
Q 2219 481 2584 976 
Q 2950 1472 2950 2216 
z
" transform="scale(0.015625)"/>
      <path id="DejaVuSans-Oblique-74" d="M 2706 3500 
L 2619 3053 
L 1472 3053 
L 1100 1153 
Q 1081 1047 1072 975 
Q 1063 903 1063 863 
Q 1063 663 1183 572 
Q 1303 481 1569 481 
L 2150 481 
L 2053 0 
L 1503 0 
Q 991 0 739 200 
Q 488 400 488 806 
Q 488 878 497 964 
Q 506 1050 525 1153 
L 897 3053 
L 409 3053 
L 500 3500 
L 978 3500 
L 1172 4494 
L 1747 4494 
L 1556 3500 
L 2706 3500 
z
" transform="scale(0.015625)"/>
      <path id="DejaVuSans-Oblique-65" d="M 3078 2063 
Q 3088 2113 3092 2166 
Q 3097 2219 3097 2272 
Q 3097 2653 2873 2875 
Q 2650 3097 2266 3097 
Q 1838 3097 1509 2826 
Q 1181 2556 1013 2059 
L 3078 2063 
z
M 3578 1613 
L 903 1613 
Q 884 1494 878 1425 
Q 872 1356 872 1306 
Q 872 872 1139 634 
Q 1406 397 1894 397 
Q 2269 397 2603 481 
Q 2938 566 3225 728 
L 3116 159 
Q 2806 34 2476 -28 
Q 2147 -91 1806 -91 
Q 1078 -91 686 257 
Q 294 606 294 1247 
Q 294 1794 489 2264 
Q 684 2734 1063 3103 
Q 1306 3334 1642 3459 
Q 1978 3584 2356 3584 
Q 2950 3584 3301 3228 
Q 3653 2872 3653 2272 
Q 3653 2128 3634 1964 
Q 3616 1800 3578 1613 
z
" transform="scale(0.015625)"/>
     </defs>
     <use xlink:href="#DejaVuSans-Oblique-52" transform="translate(0 0.09375)"/>
     <use xlink:href="#DejaVuSans-Oblique-67" transform="translate(69.482422 -16.3125) scale(0.7)"/>
     <use xlink:href="#DejaVuSans-Oblique-61" transform="translate(113.916016 -16.3125) scale(0.7)"/>
     <use xlink:href="#DejaVuSans-Oblique-74" transform="translate(156.811523 -16.3125) scale(0.7)"/>
     <use xlink:href="#DejaVuSans-Oblique-65" transform="translate(184.257812 -16.3125) scale(0.7)"/>
    </g>
   </g>
   <g id="text_25">
    <!-- D -->
    <g transform="translate(402.899258 271.795703) scale(0.125 -0.125)">
     <use xlink:href="#DejaVuSerif-44"/>
    </g>
   </g>
   <g id="patch_8">
    <path d="M 461.91 216.397656 
C 462.626048 216.397656 463.312866 216.113167 463.819188 215.606845 
C 464.325511 215.100522 464.61 214.413705 464.61 213.697656 
C 464.61 212.981608 464.325511 212.294791 463.819188 211.788468 
C 463.312866 211.282145 462.626048 210.997656 461.91 210.997656 
C 461.193952 210.997656 460.507134 211.282145 460.000812 211.788468 
C 459.494489 212.294791 459.21 212.981608 459.21 213.697656 
C 459.21 214.413705 459.494489 215.100522 460.000812 215.606845 
C 460.507134 216.113167 461.193952 216.397656 461.91 216.397656 
z
" clip-path="url(#p94c7271f83)" style="stroke: #000000; stroke-width: 0.75; stroke-linejoin: miter"/>
   </g>
   <g id="text_26">
    <!-- Q -->
    <g transform="translate(557.91 217.146875) scale(0.125 -0.125)">
     <defs>
      <path id="DejaVuSerif-51" d="M 2700 -91 
Q 1628 -91 993 567 
Q 359 1225 359 2328 
Q 359 2894 529 3339 
Q 700 3784 1050 4134 
Q 1356 4441 1750 4595 
Q 2144 4750 2625 4750 
Q 3641 4750 4266 4084 
Q 4891 3419 4891 2328 
Q 4891 1403 4422 773 
Q 3953 144 3128 -38 
Q 3297 -247 3539 -347 
Q 3781 -447 4122 -447 
L 4219 -447 
L 4219 -1025 
Q 3691 -1000 3314 -767 
Q 2938 -534 2700 -91 
z
M 2625 244 
Q 3391 244 3781 770 
Q 4172 1297 4172 2328 
Q 4172 3363 3781 3889 
Q 3391 4416 2625 4416 
Q 1856 4416 1465 3889 
Q 1075 3363 1075 2328 
Q 1075 1297 1465 770 
Q 1856 244 2625 244 
z
" transform="scale(0.015625)"/>
     </defs>
     <use xlink:href="#DejaVuSerif-51"/>
    </g>
   </g>
   <g id="patch_9">
    <path d="M 317.91 144.397656 
C 318.626048 144.397656 319.312866 144.113167 319.819188 143.606845 
C 320.325511 143.100522 320.61 142.413705 320.61 141.697656 
C 320.61 140.981608 320.325511 140.294791 319.819188 139.788468 
C 319.312866 139.282145 318.626048 138.997656 317.91 138.997656 
C 317.193952 138.997656 316.507134 139.282145 316.000812 139.788468 
C 315.494489 140.294791 315.21 140.981608 315.21 141.697656 
C 315.21 142.413705 315.494489 143.100522 316.000812 143.606845 
C 316.507134 144.113167 317.193952 144.397656 317.91 144.397656 
z
" clip-path="url(#p94c7271f83)" style="stroke-dasharray: 2.775,1.2; stroke-dashoffset: 0; stroke: #000000; stroke-width: 0.75; stroke-linejoin: miter"/>
   </g>
   <g id="patch_10">
    <path d="M 317.91 108.397656 
C 318.626048 108.397656 319.312866 108.113167 319.819188 107.606845 
C 320.325511 107.100522 320.61 106.413705 320.61 105.697656 
C 320.61 104.981608 320.325511 104.294791 319.819188 103.788468 
C 319.312866 103.282145 318.626048 102.997656 317.91 102.997656 
C 317.193952 102.997656 316.507134 103.282145 316.000812 103.788468 
C 315.494489 104.294791 315.21 104.981608 315.21 105.697656 
C 315.21 106.413705 315.494489 107.100522 316.000812 107.606845 
C 316.507134 108.113167 317.193952 108.397656 317.91 108.397656 
z
" clip-path="url(#p94c7271f83)" style="stroke-dasharray: 2.775,1.2; stroke-dashoffset: 0; stroke: #000000; stroke-width: 0.75; stroke-linejoin: miter"/>
   </g>
   <g id="text_27">
    <!-- $R_{3}$ -->
    <g transform="translate(382.5975 90.498047) scale(0.125 -0.125)">
     <defs>
      <path id="DejaVuSans-33" d="M 2597 2516 
Q 3050 2419 3304 2112 
Q 3559 1806 3559 1356 
Q 3559 666 3084 287 
Q 2609 -91 1734 -91 
Q 1441 -91 1130 -33 
Q 819 25 488 141 
L 488 750 
Q 750 597 1062 519 
Q 1375 441 1716 441 
Q 2309 441 2620 675 
Q 2931 909 2931 1356 
Q 2931 1769 2642 2001 
Q 2353 2234 1838 2234 
L 1294 2234 
L 1294 2753 
L 1863 2753 
Q 2328 2753 2575 2939 
Q 2822 3125 2822 3475 
Q 2822 3834 2567 4026 
Q 2313 4219 1838 4219 
Q 1578 4219 1281 4162 
Q 984 4106 628 3988 
L 628 4550 
Q 988 4650 1302 4700 
Q 1616 4750 1894 4750 
Q 2613 4750 3031 4423 
Q 3450 4097 3450 3541 
Q 3450 3153 3228 2886 
Q 3006 2619 2597 2516 
z
" transform="scale(0.015625)"/>
     </defs>
     <use xlink:href="#DejaVuSans-Oblique-52" transform="translate(0 0.09375)"/>
     <use xlink:href="#DejaVuSans-33" transform="translate(69.482422 -16.3125) scale(0.7)"/>
    </g>
   </g>
   <g id="patch_11">
    <path d="M 547.11 126.397656 
C 547.826048 126.397656 548.512866 126.113167 549.019188 125.606845 
C 549.525511 125.100522 549.81 124.413705 549.81 123.697656 
C 549.81 122.981608 549.525511 122.294791 549.019188 121.788468 
C 548.512866 121.282145 547.826048 120.997656 547.11 120.997656 
C 546.393952 120.997656 545.707134 121.282145 545.200812 121.788468 
C 544.694489 122.294791 544.41 122.981608 544.41 123.697656 
C 544.41 124.413705 544.694489 125.100522 545.200812 125.606845 
C 545.707134 126.113167 546.393952 126.397656 547.11 126.397656 
z
" clip-path="url(#p94c7271f83)" style="fill: #ffffff; stroke: #000000; stroke-width: 0.75; stroke-linejoin: miter"/>
   </g>
   <g id="text_28">
    <!-- Last -->
    <g transform="translate(533.514297 114.798047) scale(0.125 -0.125)">
     <defs>
      <path id="DejaVuSerif-61" d="M 2547 1044 
L 2547 1747 
L 1806 1747 
Q 1378 1747 1168 1562 
Q 959 1378 959 997 
Q 959 650 1171 447 
Q 1384 244 1747 244 
Q 2106 244 2326 466 
Q 2547 688 2547 1044 
z
M 3122 2075 
L 3122 331 
L 3634 331 
L 3634 0 
L 2547 0 
L 2547 359 
Q 2356 128 2106 18 
Q 1856 -91 1522 -91 
Q 969 -91 644 203 
Q 319 497 319 997 
Q 319 1513 691 1797 
Q 1063 2081 1741 2081 
L 2547 2081 
L 2547 2309 
Q 2547 2688 2317 2895 
Q 2088 3103 1672 3103 
Q 1328 3103 1125 2947 
Q 922 2791 872 2484 
L 575 2484 
L 575 3156 
Q 875 3284 1158 3348 
Q 1441 3413 1709 3413 
Q 2400 3413 2761 3070 
Q 3122 2728 3122 2075 
z
" transform="scale(0.015625)"/>
      <path id="DejaVuSerif-74" d="M 691 2988 
L 184 2988 
L 184 3322 
L 691 3322 
L 691 4353 
L 1269 4353 
L 1269 3322 
L 2350 3322 
L 2350 2988 
L 1269 2988 
L 1269 878 
Q 1269 456 1350 337 
Q 1431 219 1650 219 
Q 1875 219 1978 351 
Q 2081 484 2088 781 
L 2522 781 
Q 2497 328 2275 118 
Q 2053 -91 1600 -91 
Q 1103 -91 897 129 
Q 691 350 691 878 
L 691 2988 
z
" transform="scale(0.015625)"/>
     </defs>
     <use xlink:href="#DejaVuSerif-4c"/>
     <use xlink:href="#DejaVuSerif-61" x="66.40625"/>
     <use xlink:href="#DejaVuSerif-73" x="126.025391"/>
     <use xlink:href="#DejaVuSerif-74" x="177.34375"/>
    </g>
   </g>
  </g>
 </g>
 <defs>
  <clipPath id="p94c7271f83">
   <rect x="3.6" y="3.925656" width="578.82" height="338.184"/>
  </clipPath>
 </defs>
</svg>
